<svg width="147" height="105" viewBox="0 0 147 105" fill="none" xmlns="http://www.w3.org/2000/svg">
<rect width="147" height="105" fill="white"/>
<path d="M29.42 64.6176H37.97C40.19 64.6176 42.15 65.0676 43.85 65.9676C45.55 66.8476 46.87 68.0876 47.81 69.6876C48.75 71.2676 49.22 73.0776 49.22 75.1176C49.22 77.1576 48.75 78.9776 47.81 80.5776C46.87 82.1576 45.55 83.3976 43.85 84.2976C42.15 85.1776 40.19 85.6176 37.97 85.6176H29.42V64.6176ZM37.85 83.6976C39.69 83.6976 41.3 83.3376 42.68 82.6176C44.06 81.8776 45.13 80.8676 45.89 79.5876C46.65 78.2876 47.03 76.7976 47.03 75.1176C47.03 73.4376 46.65 71.9576 45.89 70.6776C45.13 69.3776 44.06 68.3676 42.68 67.6476C41.3 66.9076 39.69 66.5376 37.85 66.5376H31.64V83.6976H37.85ZM57.2052 64.6176H59.4252V85.6176H57.2052V64.6176ZM75.0479 85.7976C73.4879 85.7976 71.9879 85.5476 70.5479 85.0476C69.1279 84.5476 68.0279 83.8876 67.2479 83.0676L68.1179 81.3576C68.8779 82.1176 69.8879 82.7376 71.1479 83.2176C72.4079 83.6776 73.7079 83.9076 75.0479 83.9076C76.9279 83.9076 78.3379 83.5676 79.2779 82.8876C80.2179 82.1876 80.6879 81.2876 80.6879 80.1876C80.6879 79.3476 80.4279 78.6776 79.9079 78.1776C79.4079 77.6776 78.7879 77.2976 78.0479 77.0376C77.3079 76.7576 76.2779 76.4576 74.9579 76.1376C73.3779 75.7376 72.1179 75.3576 71.1779 74.9976C70.2379 74.6176 69.4279 74.0476 68.7479 73.2876C68.0879 72.5276 67.7579 71.4976 67.7579 70.1976C67.7579 69.1376 68.0379 68.1776 68.5979 67.3176C69.1579 66.4376 70.0179 65.7376 71.1779 65.2176C72.3379 64.6976 73.7779 64.4376 75.4979 64.4376C76.6979 64.4376 77.8679 64.6076 79.0079 64.9476C80.1679 65.2676 81.1679 65.7176 82.0079 66.2976L81.2579 68.0676C80.3779 67.4876 79.4379 67.0576 78.4379 66.7776C77.4379 66.4776 76.4579 66.3276 75.4979 66.3276C73.6579 66.3276 72.2679 66.6876 71.3279 67.4076C70.4079 68.1076 69.9479 69.0176 69.9479 70.1376C69.9479 70.9776 70.1979 71.6576 70.6979 72.1776C71.2179 72.6776 71.8579 73.0676 72.6179 73.3476C73.3979 73.6076 74.4379 73.8976 75.7379 74.2176C77.2779 74.5976 78.5179 74.9776 79.4579 75.3576C80.4179 75.7176 81.2279 76.2776 81.8879 77.0376C82.5479 77.7776 82.8779 78.7876 82.8779 80.0676C82.8779 81.1276 82.5879 82.0976 82.0079 82.9776C81.4479 83.8376 80.5779 84.5276 79.3979 85.0476C78.2179 85.5476 76.7679 85.7976 75.0479 85.7976ZM90.7149 64.6176H92.9349V85.6176H90.7149V64.6176ZM117.108 85.6176L112.308 78.8676C111.768 78.9276 111.208 78.9576 110.628 78.9576H104.988V85.6176H102.768V64.6176H110.628C113.308 64.6176 115.408 65.2576 116.928 66.5376C118.448 67.8176 119.208 69.5776 119.208 71.8176C119.208 73.4576 118.788 74.8476 117.948 75.9876C117.128 77.1076 115.948 77.9176 114.408 78.4176L119.538 85.6176H117.108ZM110.568 77.0676C112.648 77.0676 114.238 76.6076 115.338 75.6876C116.438 74.7676 116.988 73.4776 116.988 71.8176C116.988 70.1176 116.438 68.8176 115.338 67.9176C114.238 66.9976 112.648 66.5376 110.568 66.5376H104.988V77.0676H110.568Z" fill="black"/>
<path d="M89.3846 44.6802H58.6154C58.2308 44.6802 57.8782 44.9774 57.5577 45.5719C57.2372 46.1663 57.0769 46.8572 57.0769 47.6447C57.0769 48.4321 57.2372 49.1231 57.5577 49.7175C57.8782 50.3119 58.2308 50.6091 58.6154 50.6091H89.3846C89.7692 50.6091 90.1218 50.3119 90.4423 49.7175C90.7628 49.1231 90.9231 48.4321 90.9231 47.6447C90.9231 46.8572 90.7628 46.1663 90.4423 45.5719C90.1218 44.9774 89.7692 44.6802 89.3846 44.6802ZM57.0769 19.4822C56.2276 19.4822 55.5024 19.7717 54.9014 20.3507C54.3005 20.9297 54 21.6284 54 22.4467C54 23.265 54.3005 23.9637 54.9014 24.5427C55.8889 25.4941 57.1981 26.4372 57.359 27.799L58.0385 33.5519C58.5868 38.1946 62.5223 41.6926 67.1973 41.6926H80.8027C85.4777 41.6926 89.4132 38.1946 89.9615 33.5519L90.641 27.799C90.8019 26.4372 92.1111 25.4941 93.0986 24.5427C93.6995 23.9637 94 23.265 94 22.4467C94 21.6284 93.6995 20.9297 93.0986 20.3507C92.4976 19.7717 91.7724 19.4822 90.9231 19.4822C90.0737 19.4822 89.3486 19.7717 88.7476 20.3507C88.1466 20.9297 87.8462 21.6284 87.8462 22.4467C87.8462 23.8149 88.1125 25.4558 87.2069 26.4815C85.631 28.2663 84.5139 29.4728 83.8558 30.1011C82.9904 30.9271 82.2692 31.3401 81.6923 31.3401C81.1474 31.3401 80.4824 30.8267 79.6971 29.8C79.0245 28.9205 77.9285 27.2507 76.4092 24.7908C75.9686 24.0774 76.2539 23.1456 76.6803 22.4235C76.9447 21.9758 77.0769 21.4894 77.0769 20.9645C77.0769 20.1462 76.7764 19.4475 76.1755 18.8685C75.5745 18.2895 74.8494 18 74 18C73.1506 18 72.4255 18.2895 71.8245 18.8685C71.2236 19.4475 70.9231 20.1462 70.9231 20.9645C70.9231 21.4894 71.0553 21.9758 71.3197 22.4235C71.7461 23.1456 72.0314 24.0774 71.5908 24.7908C70.0715 27.2507 68.9755 28.9205 68.3029 29.8C67.5176 30.8267 66.8526 31.3401 66.3077 31.3401C65.7308 31.3401 65.0096 30.9271 64.1442 30.1011C63.4861 29.4728 62.369 28.2663 60.7931 26.4815C59.8875 25.4558 60.1538 23.8149 60.1538 22.4467C60.1538 21.6284 59.8534 20.9297 59.2524 20.3507C58.6514 19.7717 57.9263 19.4822 57.0769 19.4822Z" fill="#151313"/>
</svg>
